<?xml version="1.0" encoding="UTF-8" standalone="no"?>
<!DOCTYPE svg PUBLIC "-//W3C//DTD SVG 1.1//EN" "http://www.w3.org/Graphics/SVG/1.1/DTD/svg11.dtd">
<svg width="100%" height="100%" viewBox="0 0 2160 2160" version="1.1" xmlns="http://www.w3.org/2000/svg" xmlns:xlink="http://www.w3.org/1999/xlink" xml:space="preserve" xmlns:serif="http://www.serif.com/" style="fill-rule:evenodd;clip-rule:evenodd;stroke-linejoin:round;stroke-miterlimit:2;">
    <g transform="matrix(-1,-1.22465e-16,1.22465e-16,-1,1372.51,1864.97)">
        <g>
            <g transform="matrix(2.93527,2.93527,-33.2088,33.2088,17195.8,-21516.7)">
                <path d="M940.861,570.868C940.861,569.829 931.32,568.986 919.568,568.986C907.816,568.986 898.275,569.829 898.275,570.868L898.275,609.689C898.275,610.728 907.816,611.571 919.568,611.571C931.32,611.571 940.861,610.728 940.861,609.689L940.861,570.868Z"/>
            </g>
            <g transform="matrix(-2.93527,2.93527,-33.2088,-33.2088,22594.1,17688.2)">
                <path d="M940.861,570.868C940.861,569.829 931.32,568.986 919.568,568.986C907.816,568.986 898.275,569.829 898.275,570.868L898.275,609.689C898.275,610.728 907.816,611.571 919.568,611.571C931.32,611.571 940.861,610.728 940.861,609.689L940.861,570.868Z"/>
            </g>
        </g>
    </g>
</svg>
