<?xml version="1.0" encoding="UTF-8" standalone="no"?>
<!DOCTYPE svg PUBLIC "-//W3C//DTD SVG 1.1//EN" "http://www.w3.org/Graphics/SVG/1.1/DTD/svg11.dtd">
<svg width="100%" height="100%" viewBox="0 0 2160 2160" version="1.1" xmlns="http://www.w3.org/2000/svg" xmlns:xlink="http://www.w3.org/1999/xlink" xml:space="preserve" xmlns:serif="http://www.serif.com/" style="fill-rule:evenodd;clip-rule:evenodd;stroke-linejoin:round;stroke-miterlimit:2;">
    <path d="M1570,641.275L590,641.275C590,641.275 644.289,1292.74 668.538,1583.73C675.017,1661.48 740.007,1721.28 818.02,1721.28L1341.98,1721.28C1419.99,1721.28 1484.98,1661.48 1491.46,1583.73C1515.71,1292.74 1570,641.275 1570,641.275ZM1110,811.275C1110,794.718 1096.56,781.275 1080,781.275C1063.44,781.275 1050,794.718 1050,811.275L1050,1551.28C1050,1567.83 1063.44,1581.28 1080,1581.28C1096.56,1581.28 1110,1567.83 1110,1551.28L1110,811.275ZM850,811.275C850,794.718 836.557,781.275 820,781.275C803.443,781.275 790,794.718 790,811.275L790,1551.28C790,1567.83 803.443,1581.28 820,1581.28C836.557,1581.28 850,1567.83 850,1551.28L850,811.275ZM1370,811.275C1370,794.718 1356.56,781.275 1340,781.275C1323.44,781.275 1310,794.718 1310,811.275L1310,1551.28C1310,1567.83 1323.44,1581.28 1340,1581.28C1356.56,1581.28 1370,1567.83 1370,1551.28L1370,811.275Z"/>
</svg>
